<svg width="159" height="40" fill="none" xmlns="http://www.w3.org/2000/svg"><g clip-path="url(#a)" fill="#1A9F29"><path d="M41.59 18.492c.657.721 1.445 1.246 2.43 1.64.986.393 2.103.59 3.483.59.657 0 1.314-.066 1.84-.132a5.1 5.1 0 0 0 1.51-.393c.46-.131.855-.328 1.249-.46.329-.196.657-.327.92-.458l-.46-.984-.789.394c-.262.13-.525.196-.854.327-.328.066-.657.197-1.05.197-.395.066-.855.066-1.38.066-.986 0-1.84-.197-2.432-.59-.657-.394-1.117-.919-1.51-1.509a7.846 7.846 0 0 1-.724-2.295A19.915 19.915 0 0 1 43.626 12c0-.787.066-1.64.132-2.492.065-.852.262-1.574.591-2.23.329-.655.723-1.18 1.314-1.639.591-.393 1.38-.655 2.365-.655.92 0 1.709.262 2.366.721.657.459 1.05 1.246 1.248 2.23h1.051V4.72a18.212 18.212 0 0 0-1.051-.393c-.394-.131-.788-.197-1.248-.262C49.934 4 49.54 4 49.08 3.934c-.395 0-.789-.065-1.117-.065-1.446 0-2.628.197-3.68.59a6.763 6.763 0 0 0-2.496 1.705c-.657.721-1.117 1.64-1.446 2.688-.328 1.05-.46 2.296-.46 3.607 0 1.246.132 2.426.46 3.41.197 1.115.657 1.967 1.249 2.623ZM105.847 20.197a5.606 5.606 0 0 0 2.168-.656c.657-.393 1.182-.918 1.511-1.64.394-.72.591-1.704.591-2.95 0-.918-.131-1.64-.394-2.295-.263-.656-.657-1.115-1.248-1.574-.592-.394-1.314-.656-2.234-.853-.92-.196-2.037-.262-3.351-.262h-1.38V6.098c0-.393.066-.655.263-.787.197-.13.526-.13 1.051-.13h1.971c.592 0 1.117 0 1.512.065.394.065.722.131.919.328.263.196.46.459.592.787.131.327.328.787.46 1.377h.854V4.13h-12.09v.525c.066 0 .132.065.329.065.197.066.329.131.394.197.066.066.132.197.197.393 0 .197.066.394.066.656V18.492c0 .262 0 .524-.066.655 0 .197-.065.328-.197.394-.066.066-.197.197-.394.197-.197.065-.263.065-.328.065v.525h6.11c.985 0 1.839 0 2.694-.131Zm-4.008-1.18a.593.593 0 0 1-.197-.46c0-.196-.066-.459-.066-.787v-6.82h1.38c1.248 0 2.168.329 2.694.984.525.656.788 1.705.788 3.148 0 .983-.066 1.705-.263 2.295-.197.59-.394.984-.723 1.312a3.918 3.918 0 0 1-.985.59c-.394.065-.789.13-1.183.13-.394-.065-.723-.065-.92-.13-.197-.066-.394-.131-.525-.263ZM88.567 19.803c-.066 0-.131-.065-.329-.065-.197-.066-.328-.131-.394-.197s-.131-.197-.197-.393c0-.197-.066-.394-.066-.656v-4.525h1.643c.854 0 1.642-.065 2.43-.197a6.23 6.23 0 0 0 2.038-.72c.591-.394 1.05-.853 1.38-1.575.328-.655.525-1.573.525-2.688 0-1.05-.197-1.902-.46-2.492-.328-.59-.788-1.115-1.314-1.443-.526-.327-1.183-.524-1.905-.59-.723-.065-1.446-.13-2.234-.13h-6.439v.524c.066 0 .131.065.328.065.198.066.329.131.395.197.065.066.131.197.197.393 0 .197.066.394.066.656v12.46c0 .262 0 .524-.066.655 0 .197-.066.328-.197.393-.066.066-.197.197-.395.197-.197.066-.262.066-.328.066v.524h5.322v-.459Zm-.92-13.836c0-.131 0-.262.066-.393 0-.131.065-.197.131-.263.066-.065.197-.13.394-.13.198 0 .395-.066.723-.066.394 0 .788.065 1.183.13.394.132.657.329.985.591.263.262.46.656.657 1.115.132.459.197 1.049.197 1.705 0 1.377-.197 2.426-.59 3.147-.395.721-1.118 1.115-2.103 1.115h-1.643v-6.95ZM81.077 16.59h-1.051a12.036 12.036 0 0 1-.394 1.508c-.132.394-.263.656-.526.853-.197.197-.526.328-.92.328-.394.065-.92.065-1.643.065-.657 0-1.182 0-1.51-.065-.395-.066-.658-.131-.855-.263-.197-.13-.328-.327-.328-.524-.066-.262-.066-.525-.066-.918v-5.115h2.825c.263 0 .526.066.789.066s.525.065.788.13c.263.066.46.132.657.263V10.82c-.197.13-.394.196-.657.262s-.526.131-.788.131c-.263.066-.526.066-.789.066h-2.825V5.902c0-.328.066-.59.131-.722.132-.13.329-.13.657-.13h1.774c.592 0 1.117 0 1.512.065.394.065.722.13.92.328.262.196.46.459.59.786.132.328.33.787.46 1.378h.855V4.13H69.382v.525c.066 0 .131.065.328.065.198.066.329.131.395.197.065.066.131.197.197.393 0 .197.066.394.066.656v12.46c0 .262 0 .524-.066.655 0 .197-.066.328-.197.393-.066.066-.197.197-.395.197-.197.066-.262.066-.328.066v.524h11.695V16.59ZM63.206 20.197a5.601 5.601 0 0 0 2.168-.656 4.215 4.215 0 0 0 1.577-1.64c.394-.72.591-1.704.591-2.95 0-.918-.131-1.64-.394-2.295-.263-.656-.657-1.115-1.248-1.574-.592-.394-1.315-.656-2.234-.853-.92-.196-2.037-.262-3.351-.262h-1.38V6.098c0-.393.066-.655.263-.787.197-.13.526-.13 1.051-.13h1.971c.592 0 1.117 0 1.511.065.395.065.723.131.92.328.263.196.46.459.592.787.13.327.328.787.46 1.377h.853V4.13H54.468v.525c.066 0 .132.065.329.065.197.066.328.131.394.197s.131.197.197.393c0 .197.066.394.066.656V18.426c0 .263 0 .46-.066.656 0 .197-.066.328-.197.393-.066.066-.197.197-.394.197-.197.066-.263.066-.329.066v.59h6.11c.986 0 1.775 0 2.629-.131Zm-4.008-1.18a.595.595 0 0 1-.197-.46c0-.196-.066-.459-.066-.787v-6.82h1.38c1.248 0 2.168.329 2.694.984.525.656.788 1.705.788 3.148 0 .983-.066 1.705-.263 2.295-.197.59-.394.984-.722 1.312a3.92 3.92 0 0 1-.986.59c-.394.065-.788.13-1.183.13-.394-.065-.657-.065-.92-.13-.197-.066-.394-.131-.525-.263ZM158.869 24.918H39.75v1.574h119.119v-1.574ZM149.342 14.23c.328.459.591.852.92 1.245.262.394.591.787.854 1.18.263.394.525.788.854 1.181.328.46.591.853.854 1.312.263.393.46.852.657 1.245l5.519.066c-.591-.59-1.117-1.18-1.708-1.77-.526-.59-.986-1.115-1.314-1.443-.526-.59-.986-1.115-1.38-1.574-.46-.524-.854-.983-1.248-1.443a20.95 20.95 0 0 1-1.117-1.442 32.758 32.758 0 0 1-1.052-1.574l.263-.328c.395-.524.854-1.049 1.38-1.705.526-.655 1.051-1.311 1.643-1.901.591-.656 1.117-1.246 1.708-1.77.591-.525 1.051-.919 1.511-1.247h-3.811a9.706 9.706 0 0 1-.591 1.18c-.263.46-.526.984-.92 1.509-.328.524-.723 1.115-1.051 1.705-.394.59-.723 1.115-1.117 1.64-.394.524-.723 1.048-1.051 1.442-.329.459-.592.787-.789 1.114l.986 1.377Z"/><path d="M148.882 19.803c-.066 0-.132-.065-.329-.065-.197-.066-.328-.131-.394-.197s-.131-.197-.197-.393c0-.197-.066-.394-.066-.656V6.032c0-.262 0-.524.066-.655 0-.197.066-.328.197-.393.066-.066.197-.132.394-.197.197-.066.263-.066.329-.066v-.59h-5.322v.525c.066 0 .131.065.328.065.198.066.329.131.395.197.065.066.131.197.197.393 0 .197.065.394.065.656v12.46c0 .262 0 .524-.065.655 0 .197-.066.328-.197.393-.066.066-.197.197-.395.197-.197.066-.262.066-.328.066v.524h5.322v-.459ZM113.534 18.36c.197-.917.591-2.229 1.117-3.868h5.19l.723 2.098c.328.918.591 1.705.723 2.36.197.657.328 1.116.328 1.444h4.139c-.197-.328-.394-.787-.657-1.312-.262-.525-.591-1.312-.919-2.295l-3.745-10.623c-.198-.459-.263-.852-.329-1.18-.066-.328-.066-.59-.131-.787h-4.665v.524c.065 0 .131.066.328.066.197.066.329.131.394.197.066.065.132.196.198.393v.328c0 .393-.066.787-.198 1.05l-2.628 6.425c-.46 1.18-.919 2.23-1.248 3.017-.328.787-.657 1.508-.854 2.033-.263.524-.46.983-.657 1.311-.197.328-.329.59-.46.852h2.957c.065-.459.197-1.114.394-2.032Zm3.745-11.54 2.168 6.557h-4.468l2.3-6.557ZM131.996 19.803h-.131c-.066 0-.131-.065-.329-.065-.197-.066-.328-.131-.394-.197-.065-.066-.131-.197-.197-.393 0-.197-.066-.394-.066-.656v-6.23h6.308v6.164c0 .263 0 .525-.066.656 0 .197-.066.328-.197.393-.066.066-.197.197-.394.197-.197.066-.263.066-.329.066v.524h5.322v-.524c-.066 0-.131-.066-.328-.066-.197-.066-.329-.131-.395-.197-.065-.065-.131-.196-.197-.393 0-.197-.065-.393-.065-.656V5.902c0-.263 0-.525.065-.656 0-.197.066-.328.197-.394.066-.065.198-.13.395-.196s.262-.066.328-.066v-.459h-5.19v.525c.065 0 .131.065.328.065.197.066.329.131.394.197.066.066.132.197.198.393 0 .197.065.394.065.656v5.18h-6.307v-5.18c0-.262 0-.524.066-.656 0-.196.065-.327.197-.393.065-.066.197-.131.394-.197.197-.065.263-.065.328-.065V4.13h-5.322v.525c.066 0 .132.065.329.065.197.066.328.131.394.197s.132.197.197.393c0 .197.066.394.066.656V18.492c0 .262 0 .459-.066.655 0 .197-.065.328-.197.394-.066.066-.197.197-.394.197-.197.065-.263.065-.329.065v.525h5.322v-.525ZM28.909 5.836l-.985-1.377-18.2 10.426L.92 9.836a7.996 7.996 0 0 0-.394 1.705l9.264 5.311L28.909 5.836Z"/><path d="M9.724 18.82.263 13.377c-.066.328-.066.721-.066 1.05 0 8.59 6.965 15.606 15.637 15.606 8.607 0 15.638-6.951 15.638-15.607 0-2.557-.592-4.983-1.709-7.082L9.724 18.82Z"/><path d="M26.675 3.147c-.46-.459-.92-.786-1.38-1.18L9.724 10.951l-7.49-4.263c-.263.46-.526.984-.789 1.509l8.213 4.721 17.017-9.77Z"/><path d="M23.719.918C23.127.59 22.536.262 21.879 0L9.724 7.016 4.271 3.934c-.394.394-.723.853-1.117 1.312l6.504 3.738L23.718.918ZM106.438 38.36l1.248-6.426h2.037c1.183 0 1.708.59 1.708 1.509 0 .852-.525 1.311-1.511 1.639.657.262 1.051.721 1.051 1.377 0 1.18-.788 1.836-2.365 1.836h-2.168v.066Zm.788-.59h1.512c.985 0 1.576-.524 1.576-1.311 0-.59-.525-1.18-1.511-1.18h-1.182l-.395 2.491Zm.592-3.016h1.314c1.117 0 1.708-.524 1.708-1.311 0-.656-.394-.984-1.183-.984h-1.314l-.525 2.295ZM115.439 37.18c-.394.722-.854 1.246-1.774 1.246-1.051 0-1.774-.852-1.774-2.032 0-1.443.92-2.689 2.169-2.689.919 0 1.379.525 1.642 1.311l-.591.132c-.197-.59-.526-.919-1.051-.919-.855 0-1.577.919-1.577 2.23 0 .918.46 1.377 1.248 1.377.723 0 .986-.393 1.248-.852l.46.196ZM116.819 36.131v.328c0 .918.46 1.443 1.183 1.443.657 0 1.051-.46 1.445-1.05l.526.263c-.526.787-1.052 1.311-2.037 1.311-1.051 0-1.708-.787-1.708-1.967 0-1.574.919-2.754 2.233-2.754 1.052 0 1.643.656 1.643 1.836 0 .197-.066.394-.066.59h-3.219Zm2.694-.524c.065-.132 0-.197 0-.263 0-.524-.329-1.049-1.052-1.049-.854 0-1.248.525-1.511 1.377h2.563v-.065ZM121.615 33.836h2.563l-.066.525h-1.971l-.789 4h-.591l.854-4.525ZM123.652 37.836l1.905-4h.92l.526 4h.46l-.263 1.377h-.46l.066-.852h-3.088l-.263.852h-.46l.263-1.377h.394Zm2.694 0-.329-3.41h-.131l-1.577 3.41h2.037ZM131.208 35.672c0-.197.066-.393.066-.524 0-.525-.395-.853-.986-.853-.394 0-.723.197-.986.525l-.394-.394c.394-.328.854-.656 1.511-.656.92 0 1.512.59 1.512 1.312 0 .131-.066.393-.066.721l-.329 1.509c-.131.524-.131.852-.131 1.114h-.591c-.066-.13-.066-.328-.066-.524-.394.328-.788.59-1.314.59-.723 0-1.314-.59-1.314-1.312 0-.918.854-1.508 2.431-1.508h.657Zm-.132.46h-.459c-1.249 0-1.906.327-1.906.983 0 .459.329.787.789.787s.854-.263 1.314-.59l.262-1.18ZM136.661 34.36c.394-.393.788-.655 1.314-.655.986 0 1.511.656 1.511 1.902 0 1.639-.985 2.82-2.168 2.82-.591 0-.985-.263-1.314-.59l-.46 2.294h-.591l1.248-6.36h.526l-.066.59Zm-.526 2.886c.263.393.592.656 1.183.656.854 0 1.643-.984 1.643-2.361 0-.852-.395-1.311-1.052-1.311-.46 0-.919.196-1.248.786l-.526 2.23ZM142.049 36.262l-1.446 2.099h-.657l1.511-2.099c-.591-.196-.919-.655-.919-1.18 0-.59.525-1.246 1.576-1.246h2.169l-.92 4.525h-.592l.395-2.099h-1.117Zm1.445-1.967h-1.445c-.657 0-.986.393-.986.721 0 .46.263.656.789.656h1.314l.328-1.377ZM144.874 37.836l1.905-4h.92l.526 4h.46l-.263 1.377h-.46l.066-.852h-3.088l-.263.852h-.46l.263-1.377h.394Zm2.628 0-.328-3.41h-.132l-1.577 3.41h2.037ZM149.21 36.46c0-1.575.986-2.755 2.169-2.755.985 0 1.576.787 1.576 1.967 0 1.508-.985 2.754-2.168 2.754-.92 0-1.577-.721-1.577-1.967Zm.592.13c0 .853.46 1.312 1.051 1.312.788 0 1.577-.984 1.577-2.295 0-.853-.46-1.377-1.051-1.377-.789 0-1.577.983-1.577 2.36ZM158.211 34.36l-1.971 4h-.591l-.591-4-.789 4h-.591l.92-4.524h.985l.526 3.934 1.905-3.934H159l-.92 4.525h-.591l.722-4Z"/></g><defs><clipPath id="a"><path fill="#fff" d="M0 0h159v40H0z"/></clipPath></defs></svg>